<svg xmlns="http://www.w3.org/2000/svg" width="920" height="520" viewBox="0 0 920 520">
<rect width="100%" height="100%" fill="#f8fafc"/>
<text x="28" y="38" font-family="Arial" font-size="22" font-weight="700" fill="#0f172a">Power-derived HBM-equivalent demand by LLM owner, Base 2030</text>
<text x="28" y="93" font-family="Arial" font-size="14" fill="#334155">OpenAI</text>
<rect x="190" y="76" width="660.0" height="22" rx="3" fill="#2563eb"/>
<text x="858.0" y="93" font-family="Arial" font-size="13" fill="#0f172a">435.85 PB HBM</text>
<text x="28" y="131" font-family="Arial" font-size="14" fill="#334155">Google</text>
<rect x="190" y="114" width="530.4" height="22" rx="3" fill="#2563eb"/>
<text x="728.4" y="131" font-family="Arial" font-size="13" fill="#0f172a">350.25 PB HBM</text>
<text x="28" y="169" font-family="Arial" font-size="14" fill="#334155">Meta</text>
<rect x="190" y="152" width="457.7" height="22" rx="3" fill="#2563eb"/>
<text x="655.7" y="169" font-family="Arial" font-size="13" fill="#0f172a">302.26 PB HBM</text>
<text x="28" y="207" font-family="Arial" font-size="14" fill="#334155">Microsoft</text>
<rect x="190" y="190" width="418.3" height="22" rx="3" fill="#2563eb"/>
<text x="616.3" y="207" font-family="Arial" font-size="13" fill="#0f172a">276.22 PB HBM</text>
<text x="28" y="245" font-family="Arial" font-size="14" fill="#334155">Anthropic</text>
<rect x="190" y="228" width="391.9" height="22" rx="3" fill="#2563eb"/>
<text x="589.9" y="245" font-family="Arial" font-size="13" fill="#0f172a">258.82 PB HBM</text>
<text x="28" y="283" font-family="Arial" font-size="14" fill="#334155">Alibaba</text>
<rect x="190" y="266" width="215.7" height="22" rx="3" fill="#2563eb"/>
<text x="413.7" y="283" font-family="Arial" font-size="13" fill="#0f172a">142.47 PB HBM</text>
<text x="28" y="321" font-family="Arial" font-size="14" fill="#334155">Tencent</text>
<rect x="190" y="304" width="170.5" height="22" rx="3" fill="#2563eb"/>
<text x="368.5" y="321" font-family="Arial" font-size="13" fill="#0f172a">112.61 PB HBM</text>
<text x="28" y="359" font-family="Arial" font-size="14" fill="#334155">xAI</text>
<rect x="190" y="342" width="152.3" height="22" rx="3" fill="#2563eb"/>
<text x="350.3" y="359" font-family="Arial" font-size="13" fill="#0f172a">100.60 PB HBM</text>
<text x="28" y="397" font-family="Arial" font-size="14" fill="#334155">DeepSeek</text>
<rect x="190" y="380" width="84.7" height="22" rx="3" fill="#2563eb"/>
<text x="282.7" y="397" font-family="Arial" font-size="13" fill="#0f172a">55.92 PB HBM</text>
</svg>